<?xml version="1.0" encoding="utf-8"?>
<!-- Generator: Adobe Illustrator 20.1.0, SVG Export Plug-In . SVG Version: 6.00 Build 0)  -->
<!DOCTYPE svg PUBLIC "-//W3C//DTD SVG 1.1//EN" "http://www.w3.org/Graphics/SVG/1.1/DTD/svg11.dtd">
<svg version="1.1" id="Layer_1" xmlns="http://www.w3.org/2000/svg" xmlns:xlink="http://www.w3.org/1999/xlink" x="0px" y="0px"
	 viewBox="0 0 19 19" style="enable-background:new 0 0 19 19;" xml:space="preserve">
<style type="text/css">
	.st0{fill:none;}
	.st1{fill:#007DE7;stroke:#212433;stroke-width:0.5;stroke-miterlimit:10;}
	.st2{fill:#FFFFFF;}
</style>
<title>marker-15.svg</title>
<rect class="st0" width="19" height="19"/>
<path class="st1" d="M9.5,2C7.1,2,4.2,3.5,4.2,7.3c0,2.6,4.1,8.2,5.3,9.7c1.1-1.5,5.3-7,5.3-9.7C14.8,3.5,11.9,2,9.5,2z"/>
<path class="st2" d="M8.6,4.3C8.3,4.3,8.2,4.6,8,4.8L7.7,5.4H6.5C6,5.4,5.6,5.7,5.6,6.2v2.7c0,0.5,0.4,0.8,0.9,0.8h6
	c0.5,0,0.9-0.4,0.9-0.8V6.2c0-0.5-0.4-0.8-0.9-0.8h-1.2L11,4.8c-0.1-0.3-0.3-0.5-0.6-0.5H8.6z M6.5,5.9c0.2,0,0.3,0.1,0.3,0.3
	S6.7,6.5,6.5,6.5S6.2,6.3,6.2,6.2S6.4,5.9,6.5,5.9z M9.5,5.9c1,0,1.8,0.7,1.8,1.6s-0.8,1.6-1.8,1.6S7.7,8.4,7.7,7.5S8.5,5.9,9.5,5.9
	z M9.5,6.7C9,6.7,8.6,7.1,8.6,7.5l0,0C8.6,8,9,8.4,9.5,8.4l0,0c0.5,0,0.9-0.4,0.9-0.8l0,0C10.4,7.1,10,6.7,9.5,6.7L9.5,6.7z"/>
</svg>
