<?xml version="1.0" encoding="utf-8"?>
<!-- Generator: Adobe Illustrator 20.1.0, SVG Export Plug-In . SVG Version: 6.00 Build 0)  -->
<!DOCTYPE svg PUBLIC "-//W3C//DTD SVG 1.1//EN" "http://www.w3.org/Graphics/SVG/1.1/DTD/svg11.dtd">
<svg version="1.1" id="Layer_1" xmlns="http://www.w3.org/2000/svg" xmlns:xlink="http://www.w3.org/1999/xlink" x="0px" y="0px"
	 viewBox="0 0 19 19" style="enable-background:new 0 0 19 19;" xml:space="preserve">
<style type="text/css">
	.st0{fill:none;}
	.st1{fill:#FFCC00;stroke:#514C1D;stroke-width:0.5;stroke-miterlimit:10;}
	.st2{fill:#514C1D;}
</style>
<title>marker-15.svg</title>
<rect class="st0" width="19" height="19"/>
<path class="st1" d="M9.5,2C7.1,2,4.2,3.5,4.2,7.3c0,2.6,4.1,8.2,5.3,9.7c1.1-1.5,5.3-7,5.3-9.7C14.8,3.5,11.9,2,9.5,2z"/>
<path class="st2" d="M12.6,6.1V4c0,0-0.7-0.7-3.1-0.7S6.4,4,6.4,4v2.1c0,1,0.3,1.9,0.7,2.8c0.4,1,0.4,2.1,0,3.1c0,0,0,0.7,2.4,0.7
	s2.4-0.7,2.4-0.7c-0.4-1-0.4-2.1,0-3.1C12.4,8,12.6,7.1,12.6,6.1z M9.5,12c-0.6,0-1.1,0-1.6-0.2c0.1-0.5,0.2-1,0.2-1.5h2.9
	c0,0.5,0.1,1,0.2,1.5C10.6,12,10.1,12,9.5,12z M9.5,6.1C8.7,6.1,7.9,6,7.1,5.7V4.4C7.9,4.1,8.7,4,9.5,4c0.8,0,1.6,0.1,2.4,0.3v1.4
	C11.1,6,10.3,6.1,9.5,6.1z"/>
</svg>
