<?xml version="1.0" encoding="utf-8"?>
<!-- Generator: Adobe Illustrator 21.0.0, SVG Export Plug-In . SVG Version: 6.00 Build 0)  -->
<!DOCTYPE svg PUBLIC "-//W3C//DTD SVG 1.1//EN" "http://www.w3.org/Graphics/SVG/1.1/DTD/svg11.dtd">
<svg version="1.1" id="Layer_1" xmlns="http://www.w3.org/2000/svg" xmlns:xlink="http://www.w3.org/1999/xlink" x="0px" y="0px"
	 viewBox="0 0 19 19" style="enable-background:new 0 0 19 19;" xml:space="preserve">
<style type="text/css">
	.st0{fill:none;}
	.st1{fill:#514C1D;stroke:#FFCC00;stroke-width:0.5;stroke-miterlimit:10;}
	.st2{fill:#514C1D;}
	.st3{fill:#FFCC00;stroke:#FFCC00;stroke-width:0.2;stroke-miterlimit:10;}
</style>
<title>marker-15.svg</title>
<rect class="st0" width="19" height="19"/>
<path class="st1" d="M9.5,2C7.1,2,4.2,3.5,4.2,7.3c0,2.6,4.1,8.2,5.3,9.7c1.1-1.5,5.3-7,5.3-9.7C14.8,3.5,11.9,2,9.5,2z"/>
<path class="st2" d="M-65.7-1.9V-4c0,0-0.7-0.7-3.1-0.7S-71.9-4-71.9-4v2.1c0,1,0.3,1.9,0.7,2.8c0.4,1,0.4,2.1,0,3.1
	c0,0,0,0.7,2.4,0.7c2.4,0,2.4-0.7,2.4-0.7c-0.4-1-0.4-2.1,0-3.1C-65.9,0-65.7-0.9-65.7-1.9z M-68.8,4c-0.6,0-1.1,0-1.6-0.2
	c0.1-0.5,0.2-1,0.2-1.5h2.9c0,0.5,0.1,1,0.2,1.5C-67.7,4-68.2,4-68.8,4z M-68.8-1.9c-0.8,0-1.6-0.1-2.4-0.4v-1.3
	c0.8-0.3,1.6-0.4,2.4-0.4c0.8,0,1.6,0.1,2.4,0.3v1.4C-67.2-2-68-1.9-68.8-1.9z"/>
<path class="st3" d="M12.6,6.3h-1.1V5.2H7.1v2.2c0,1.2,1,2.2,2.2,2.2c0.8,0,1.5-0.4,1.9-1.1h1.4c0.6,0,1.1-0.5,1.1-1.1
	S13.2,6.3,12.6,6.3z M12.6,7.9h-1.2c0-0.2,0.1-0.4,0.1-0.6V6.8h1.1c0.3,0,0.6,0.2,0.6,0.6S12.9,7.9,12.6,7.9z M11.5,10.4
	c0,0.2-0.1,0.3-0.3,0.3H7.4c-0.2,0-0.3-0.1-0.3-0.3c0-0.2,0.1-0.3,0.3-0.3h3.9C11.4,10.2,11.5,10.3,11.5,10.4z"/>
</svg>
