<?xml version="1.0" encoding="utf-8"?>
<!-- Generator: Adobe Illustrator 20.1.0, SVG Export Plug-In . SVG Version: 6.00 Build 0)  -->
<!DOCTYPE svg PUBLIC "-//W3C//DTD SVG 1.1//EN" "http://www.w3.org/Graphics/SVG/1.1/DTD/svg11.dtd">
<svg version="1.1" id="Layer_1" xmlns="http://www.w3.org/2000/svg" xmlns:xlink="http://www.w3.org/1999/xlink" x="0px" y="0px"
	 viewBox="0 0 19 19" style="enable-background:new 0 0 19 19;" xml:space="preserve">
<style type="text/css">
	.st0{fill:none;}
	.st1{fill:#45A200;stroke:#162E00;stroke-width:0.5;stroke-miterlimit:10;}
	.st2{fill:#FFFFFF;}
</style>
<title>marker-15.svg</title>
<rect class="st0" width="19" height="19"/>
<path class="st1" d="M9.5,2C7.1,2,4.2,3.5,4.2,7.3c0,2.6,4.1,8.2,5.3,9.7c1.1-1.5,5.3-7,5.3-9.7C14.8,3.5,11.9,2,9.5,2z"/>
<path class="st2" d="M12.6,4.2c0,0-0.8,0-1.1,0.3c-0.3,0.3-0.4,0.5-0.4,1.1H6l0.8,2.6c0,0,0,0,0,0c0.1,0.4,0.5,0.6,0.9,0.6
	c0,0,0,0,0,0h3.6V9c0,0,0,0.2-0.1,0.4C11,9.6,11,9.7,10.5,9.7H7c-0.5,0-0.5,0.8,0,0.8h0.7h0.1h2.7h0.1h0.1c0.7,0,1.2-0.4,1.3-0.8
	C12,9.4,12,9,12,9V8.9V5.6C12,5.3,12.1,5,12.4,5h0.3c0.2,0,0.4-0.2,0.4-0.4C13.1,4.4,12.9,4.2,12.6,4.2L12.6,4.2z M10.4,10.5
	c-0.3,0-0.5,0.2-0.5,0.5c0,0.3,0.2,0.5,0.5,0.5c0.3,0,0.5-0.2,0.5-0.5C11,10.7,10.8,10.5,10.4,10.5z M7.7,10.5
	c-0.3,0-0.5,0.2-0.5,0.5c0,0.3,0.2,0.5,0.5,0.5c0.3,0,0.5-0.2,0.5-0.5C8.2,10.7,8,10.5,7.7,10.5z"/>
</svg>
