<?xml version="1.0" encoding="utf-8"?>
<!-- Generator: Adobe Illustrator 20.1.0, SVG Export Plug-In . SVG Version: 6.00 Build 0)  -->
<!DOCTYPE svg PUBLIC "-//W3C//DTD SVG 1.1//EN" "http://www.w3.org/Graphics/SVG/1.1/DTD/svg11.dtd">
<svg version="1.1" id="Layer_1" xmlns="http://www.w3.org/2000/svg" xmlns:xlink="http://www.w3.org/1999/xlink" x="0px" y="0px"
	 viewBox="0 0 19 19" style="enable-background:new 0 0 19 19;" xml:space="preserve">
<style type="text/css">
	.st0{fill:none;}
	.st1{fill:#CC3333;stroke:#561F1F;stroke-width:0.5;stroke-miterlimit:10;}
	.st2{fill:#FFFFFF;}
</style>
<title>marker-15.svg</title>
<rect class="st0" width="19" height="19"/>
<path class="st1" d="M9.5,2C7.1,2,4.2,3.5,4.2,7.3c0,2.6,4.1,8.2,5.3,9.7c1.1-1.5,5.3-7,5.3-9.7C14.8,3.5,11.9,2,9.5,2z"/>
<path class="st2" d="M7.3,3.7L6.7,6.5c-0.1,0.4,1,0.6,1,1l-0.1,3.3c0,0.5,0.6,0.5,0.6,0.5s0.6,0,0.6-0.5L8.5,7.5c0-0.4,1-0.6,1-1
	L8.9,3.7H8.7l0.1,2.1L8.4,6L8.2,3.7H8L7.8,6L7.4,5.7l0.1-2.1H7.3z M12,3.7c-0.4,0-1.1,0.3-1.4,0.8c-0.2,0.4-0.3,1.2-0.3,1.7v1.3
	c0,0.4,0.6,0.5,0.8,0.5l-0.3,2.8c-0.1,0.5,0.6,0.5,0.6,0.5s0.6,0,0.6-0.5V3.7z"/>
</svg>
